<svg width="64" height="64" viewBox="0 0 64 64" fill="none" xmlns="http://www.w3.org/2000/svg">
  <defs>
    <linearGradient id="blueGradient" x1="0%" y1="0%" x2="100%" y2="100%">
      <stop offset="0%" style="stop-color:#E3F2FD;stop-opacity:1" />
      <stop offset="50%" style="stop-color:#90CAF9;stop-opacity:1" />
      <stop offset="100%" style="stop-color:#42A5F5;stop-opacity:1" />
    </linearGradient>
  </defs>
  
  <path d="M20 40 Q25 30 35 35 Q45 25 55 30 Q50 40 45 45 Q40 50 35 45 Q30 50 25 45 Q15 40 20 40 Z" fill="#E0E0E0" stroke="#666" stroke-width="2"/>
  
  <circle cx="25" cy="38" r="4" fill="url(#blueGradient)"/>
  <circle cx="35" cy="35" r="4" fill="url(#blueGradient)"/>
  <circle cx="45" cy="32" r="4" fill="url(#blueGradient)"/>
  <circle cx="30" cy="42" r="4" fill="url(#blueGradient)"/>
  <circle cx="40" cy="39" r="4" fill="url(#blueGradient)"/>
  
  <path d="M48 28 L52 18 Q54 16 56 18 L58 22 Q56 24 54 22 L50 28 Z" fill="#8B4513" stroke="#654321" stroke-width="1"/>
  
  <circle cx="22" cy="36" r="1.5" fill="#1976D2" opacity="0.7"/>
  <circle cx="38" cy="33" r="1.5" fill="#1976D2" opacity="0.7"/>
  <circle cx="42" cy="30" r="1.5" fill="#1976D2" opacity="0.7"/>
  <circle cx="28" cy="40" r="1.5" fill="#1976D2" opacity="0.7"/>
  <circle cx="36" cy="37" r="1.5" fill="#1976D2" opacity="0.7"/>
  
  <path d="M15 25 Q20 20 25 25 Q20 30 15 25 Z" fill="url(#blueGradient)" opacity="0.6"/>
  <path d="M10 35 Q15 30 20 35 Q15 40 10 35 Z" fill="url(#blueGradient)" opacity="0.6"/>
  <path d="M50 45 Q55 40 60 45 Q55 50 50 45 Z" fill="url(#blueGradient)" opacity="0.6"/>
  
  <ellipse cx="32" cy="48" rx="8" ry="3" fill="#333" opacity="0.3"/>
</svg> 