<svg width="64" height="64" viewBox="0 0 64 64" fill="none" xmlns="http://www.w3.org/2000/svg">
  <defs>
    <linearGradient id="blueGradient" x1="0%" y1="0%" x2="100%" y2="100%">
      <stop offset="0%" style="stop-color:#E3F2FD;stop-opacity:1" />
      <stop offset="50%" style="stop-color:#90CAF9;stop-opacity:1" />
      <stop offset="100%" style="stop-color:#42A5F5;stop-opacity:1" />
    </linearGradient>
  </defs>
  
  <circle cx="20" cy="18" r="8" fill="url(#blueGradient)" stroke="#fff" stroke-width="2"/>
  <circle cx="18" cy="16" r="1.5" fill="#333"/>
  <circle cx="22" cy="16" r="1.5" fill="#333"/>
  <path d="M16 20 Q20 23 24 20" stroke="#333" stroke-width="1.5" fill="none" stroke-linecap="round"/>
  
  <ellipse cx="20" cy="35" rx="8" ry="12" fill="url(#blueGradient)" stroke="#fff" stroke-width="2"/>
  
  <path d="M35 15 Q50 10 55 20 Q50 30 35 25 L30 35 Q32 30 35 25 Z" fill="url(#blueGradient)" stroke="#fff" stroke-width="2"/>
  <text x="45" y="22" font-family="Arial, sans-serif" font-size="8" font-weight="bold" fill="white" text-anchor="middle">Hi!</text>
  
  <circle cx="44" cy="48" r="8" fill="url(#blueGradient)" stroke="#fff" stroke-width="2"/>
  <circle cx="42" cy="46" r="1.5" fill="#333"/>
  <circle cx="46" cy="46" r="1.5" fill="#333"/>
  <path d="M40 50 Q44 53 48 50" stroke="#333" stroke-width="1.5" fill="none" stroke-linecap="round"/>
  
  <ellipse cx="44" cy="58" rx="6" ry="4" fill="url(#blueGradient)" stroke="#fff" stroke-width="1"/>
</svg> 