<svg width="64" height="64" viewBox="0 0 64 64" fill="none" xmlns="http://www.w3.org/2000/svg">
  <defs>
    <linearGradient id="blueGradient" x1="0%" y1="0%" x2="100%" y2="100%">
      <stop offset="0%" style="stop-color:#E3F2FD;stop-opacity:1" />
      <stop offset="50%" style="stop-color:#90CAF9;stop-opacity:1" />
      <stop offset="100%" style="stop-color:#42A5F5;stop-opacity:1" />
    </linearGradient>
  </defs>
  
  <circle cx="32" cy="32" r="16" fill="url(#blueGradient)" stroke="#fff" stroke-width="2"/>
  
  <circle cx="20" cy="20" r="6" fill="#42A5F5"/>
  <circle cx="44" cy="20" r="6" fill="#42A5F5"/>
  <circle cx="16" cy="32" r="6" fill="#42A5F5"/>
  <circle cx="48" cy="32" r="6" fill="#42A5F5"/>
  <circle cx="20" cy="44" r="6" fill="#42A5F5"/>
  <circle cx="44" cy="44" r="6" fill="#42A5F5"/>
  
  <ellipse cx="28" cy="28" rx="2" ry="3" fill="#333"/>
  <ellipse cx="36" cy="28" rx="2" ry="3" fill="#333"/>
  
  <ellipse cx="32" cy="34" rx="2" ry="1.5" fill="#1976D2"/>
  
  <path d="M28 36 Q32 40 36 36" stroke="#333" stroke-width="2" fill="none" stroke-linecap="round"/>
  
  <path d="M26 38 L22 42 M38 38 L42 42" stroke="#333" stroke-width="2" stroke-linecap="round"/>
  
  <ellipse cx="32" cy="22" rx="8" ry="4" fill="#81C784" opacity="0.7"/>
  
  <circle cx="26" cy="26" r="1" fill="#fff" opacity="0.8"/>
  <circle cx="38" cy="26" r="1" fill="#fff" opacity="0.8"/>
</svg> 
  <defs>
    <linearGradient id="blueGradient" x1="0%" y1="0%" x2="100%" y2="100%">
      <stop offset="0%" style="stop-color:#E3F2FD;stop-opacity:1" />
      <stop offset="50%" style="stop-color:#90CAF9;stop-opacity:1" />
      <stop offset="100%" style="stop-color:#42A5F5;stop-opacity:1" />
    </linearGradient>
  </defs>
  
  <circle cx="32" cy="32" r="16" fill="url(#blueGradient)" stroke="#fff" stroke-width="2"/>
  
  <circle cx="20" cy="20" r="6" fill="#42A5F5"/>
  <circle cx="44" cy="20" r="6" fill="#42A5F5"/>
  <circle cx="16" cy="32" r="6" fill="#42A5F5"/>
  <circle cx="48" cy="32" r="6" fill="#42A5F5"/>
  <circle cx="20" cy="44" r="6" fill="#42A5F5"/>
  <circle cx="44" cy="44" r="6" fill="#42A5F5"/>
  
  <ellipse cx="28" cy="28" rx="2" ry="3" fill="#333"/>
  <ellipse cx="36" cy="28" rx="2" ry="3" fill="#333"/>
  
  <ellipse cx="32" cy="34" rx="2" ry="1.5" fill="#1976D2"/>
  
  <path d="M28 36 Q32 40 36 36" stroke="#333" stroke-width="2" fill="none" stroke-linecap="round"/>
  
  <path d="M26 38 L22 42 M38 38 L42 42" stroke="#333" stroke-width="2" stroke-linecap="round"/>
  
  <ellipse cx="32" cy="22" rx="8" ry="4" fill="#81C784" opacity="0.7"/>
  
  <circle cx="26" cy="26" r="1" fill="#fff" opacity="0.8"/>
  <circle cx="38" cy="26" r="1" fill="#fff" opacity="0.8"/>
</svg> 