<svg width="64" height="64" viewBox="0 0 64 64" fill="none" xmlns="http://www.w3.org/2000/svg">
  <defs>
    <linearGradient id="blueGradient" x1="0%" y1="0%" x2="100%" y2="100%">
      <stop offset="0%" style="stop-color:#E3F2FD;stop-opacity:1" />
      <stop offset="50%" style="stop-color:#90CAF9;stop-opacity:1" />
      <stop offset="100%" style="stop-color:#42A5F5;stop-opacity:1" />
    </linearGradient>
  </defs>
  
  <circle cx="32" cy="16" r="8" fill="url(#blueGradient)" stroke="#fff" stroke-width="2"/>
  
  <ellipse cx="32" cy="32" rx="8" ry="12" fill="url(#blueGradient)" stroke="#fff" stroke-width="2"/>
  
  <rect x="20" y="26" width="6" height="16" rx="3" fill="url(#blueGradient)" stroke="#fff" stroke-width="1"/>
  <rect x="38" y="26" width="6" height="16" rx="3" fill="url(#blueGradient)" stroke="#fff" stroke-width="1"/>
  
  <rect x="28" y="42" width="8" height="16" rx="4" fill="url(#blueGradient)" stroke="#fff" stroke-width="1"/>
  
  <circle cx="29" cy="14" r="1.5" fill="#333"/>
  <circle cx="35" cy="14" r="1.5" fill="#333"/>
  
  <ellipse cx="32" cy="17" rx="1.5" ry="1" fill="#1976D2"/>
  
  <path d="M29 18 Q32 21 35 18" stroke="#333" stroke-width="1.5" fill="none" stroke-linecap="round"/>
  
  <circle cx="23" cy="32" r="2" fill="#81C784" stroke="#fff" stroke-width="1"/>
  <circle cx="41" cy="32" r="2" fill="#81C784" stroke="#fff" stroke-width="1"/>
  
  <circle cx="26" cy="58" r="3" fill="#333"/>
  <circle cx="38" cy="58" r="3" fill="#333"/>
  
  <path d="M28 10 Q32 8 36 10" stroke="#8B4513" stroke-width="2" fill="none" stroke-linecap="round"/>
  
  <ellipse cx="32" cy="50" rx="4" ry="2" fill="#333" opacity="0.2"/>
</svg> 