<svg width="64" height="64" viewBox="0 0 64 64" fill="none" xmlns="http://www.w3.org/2000/svg">
  <defs>
    <linearGradient id="blueGradient" x1="0%" y1="0%" x2="100%" y2="100%">
      <stop offset="0%" style="stop-color:#E3F2FD;stop-opacity:1" />
      <stop offset="50%" style="stop-color:#90CAF9;stop-opacity:1" />
      <stop offset="100%" style="stop-color:#42A5F5;stop-opacity:1" />
    </linearGradient>
  </defs>
  
  <circle cx="20" cy="16" r="6" fill="url(#blueGradient)" stroke="#fff" stroke-width="2"/>
  <ellipse cx="20" cy="30" rx="6" ry="10" fill="url(#blueGradient)" stroke="#fff" stroke-width="2"/>
  <rect x="17" y="36" width="6" height="16" fill="#333" rx="3"/>
  
  <circle cx="44" cy="18" r="5" fill="url(#blueGradient)" stroke="#fff" stroke-width="2"/>
  <ellipse cx="44" cy="31" rx="5" ry="8" fill="url(#blueGradient)" stroke="#fff" stroke-width="2"/>
  <rect x="42" y="36" width="4" height="16" fill="#333" rx="2"/>
  
  <circle cx="30" cy="28" r="4" fill="url(#blueGradient)" stroke="#fff" stroke-width="2"/>
  <ellipse cx="30" cy="38" rx="4" ry="6" fill="url(#blueGradient)" stroke="#fff" stroke-width="2"/>
  <rect x="28" y="42" width="4" height="10" fill="#333" rx="2"/>
  
  <circle cx="38" cy="32" r="3" fill="url(#blueGradient)" stroke="#fff" stroke-width="2"/>
  <ellipse cx="38" cy="40" rx="3" ry="5" fill="url(#blueGradient)" stroke="#fff" stroke-width="2"/>
  <rect x="36.5" y="43" width="3" height="9" fill="#333" rx="1.5"/>
  
  <path d="M14 10 Q20 8 26 10" stroke="#333" stroke-width="2" fill="none" stroke-linecap="round"/>
  <path d="M39 12 Q44 10 49 12" stroke="#333" stroke-width="2" fill="none" stroke-linecap="round"/>
  
  <circle cx="18" cy="14" r="1" fill="#333"/>
  <circle cx="22" cy="14" r="1" fill="#333"/>
  <circle cx="42" cy="16" r="0.8" fill="#333"/>
  <circle cx="46" cy="16" r="0.8" fill="#333"/>
  <circle cx="28" cy="26" r="0.8" fill="#333"/>
  <circle cx="32" cy="26" r="0.8" fill="#333"/>
  <circle cx="36.5" cy="30" r="0.6" fill="#333"/>
  <circle cx="39.5" cy="30" r="0.6" fill="#333"/>
</svg> 