<svg width="64" height="64" viewBox="0 0 64 64" fill="none" xmlns="http://www.w3.org/2000/svg">
  <defs>
    <linearGradient id="blueGradient" x1="0%" y1="0%" x2="100%" y2="100%">
      <stop offset="0%" style="stop-color:#E3F2FD;stop-opacity:1" />
      <stop offset="50%" style="stop-color:#90CAF9;stop-opacity:1" />
      <stop offset="100%" style="stop-color:#42A5F5;stop-opacity:1" />
    </linearGradient>
  </defs>
  
  <circle cx="32" cy="36" r="20" fill="url(#blueGradient)" stroke="#fff" stroke-width="2"/>
  
  <path d="M32 16 Q35 12 40 16 Q42 18 40 22 Q38 20 35 20 Q32 18 32 16 Z" fill="#2E7D32"/>
  
  <ellipse cx="25" cy="30" rx="3" ry="8" fill="#81C784" opacity="0.7"/>
  <ellipse cx="32" cy="28" rx="3" ry="9" fill="#81C784" opacity="0.7"/>
  <ellipse cx="39" cy="30" rx="3" ry="8" fill="#81C784" opacity="0.7"/>
  <ellipse cx="28" cy="40" rx="3" ry="8" fill="#81C784" opacity="0.7"/>
  <ellipse cx="36" cy="40" rx="3" ry="8" fill="#81C784" opacity="0.7"/>
  
  <circle cx="28" cy="33" r="1" fill="#1976D2"/>
  <circle cx="36" cy="35" r="1" fill="#1976D2"/>
  <circle cx="32" cy="42" r="1" fill="#1976D2"/>
  
  <path d="M20 28 Q16 32 20 36 Q24 32 20 28 Z" fill="#BBDEFB" opacity="0.8"/>
  <circle cx="20" cy="32" r="1" fill="#1976D2"/>
  
  <path d="M44 40 Q48 36 44 32 Q40 36 44 40 Z" fill="#BBDEFB" opacity="0.8"/>
  <circle cx="44" cy="36" r="1" fill="#1976D2"/>
</svg> 